<?xml version="1.0" encoding="UTF-8"?>
<svg xmlns="http://www.w3.org/2000/svg" width="1080" height="1920" viewBox="0 0 1080 1920">
  <defs>
    <linearGradient id="bg" x1="0" y1="0" x2="0" y2="1">
      <stop offset="0%" stop-color="#fffaf2"/>
      <stop offset="100%" stop-color="#f7efe2"/>
    </linearGradient>
    <linearGradient id="hero" x1="0" y1="0" x2="1" y2="1">
      <stop offset="0%" stop-color="#3f67c8"/>
      <stop offset="100%" stop-color="#6f8fe0"/>
    </linearGradient>
    <style>
      .title { font: 700 38px 'Noto Sans JP', sans-serif; fill: #1f2a44; }
      .h2 { font: 700 30px 'Noto Sans JP', sans-serif; fill: #1f2a44; }
      .text { font: 500 22px 'Noto Sans JP', sans-serif; fill: #3f4a5d; }
      .small { font: 500 18px 'Noto Sans JP', sans-serif; fill: #6b7487; }
      .btn { font: 700 21px 'Noto Sans JP', sans-serif; fill: #fff; text-anchor: middle; }
      .tab { font: 600 18px 'Noto Sans JP', sans-serif; fill: #596075; text-anchor: middle; }
    </style>
  </defs>

  <rect width="1080" height="1920" fill="url(#bg)"/>
  <text x="80" y="115" class="title">&#x8B1B;&#x7FA9;</text>
  <text x="80" y="152" class="small">&#x7279;&#x5225;&#x8B1B;&#x7FA9;&#x3082;&#x542B;&#x3080;&#x5B66;&#x7FD2;&#x4E00;&#x89A7;</text>

  <rect x="60" y="190" width="960" height="420" rx="28" fill="url(#hero)"/>
  <text x="100" y="255" style="font:700 32px 'Noto Sans JP',sans-serif;fill:#fff">&#x7279;&#x5225;&#x8B1B;&#x7FA9;</text>
  <text x="100" y="292" style="font:600 24px 'Noto Sans JP',sans-serif;fill:#dce7ff">&#x6210;&#x679C;&#x5C0E;&#x7DDA;&#x306E;&#x8A2D;&#x8A08;</text>
  <rect x="100" y="320" width="250" height="44" rx="22" fill="#ffffff2d"/>
  <text x="125" y="349" style="font:600 18px 'Noto Sans JP',sans-serif;fill:#fff">&#x89E3;&#x653E;&#x6E08;&#x307F;</text>
  <rect x="100" y="390" width="880" height="165" rx="20" fill="#11182655"/>
  <polygon points="520,440 520,505 585,472" fill="#fff"/>
  <text x="100" y="585" style="font:500 18px 'Noto Sans JP',sans-serif;fill:#dce7ff">&#x518D;&#x751F;&#x6E08; 11:24 / 19:40</text>

  <rect x="60" y="640" width="960" height="110" rx="24" fill="#fff" stroke="#e3d8c8"/>
  <text x="90" y="685" class="h2">&#x5B66;&#x7FD2;&#x9032;&#x6357; 3/5</text>
  <text x="90" y="720" class="small">&#x7279;&#x5225;&#x8B1B;&#x7FA9; 1&#x672C;&#x3092;&#x89E3;&#x653E;&#x6E08;&#x307F;</text>
  <rect x="760" y="670" width="220" height="20" rx="10" fill="#e8edf8"/>
  <rect x="760" y="670" width="132" height="20" rx="10" fill="#5b7ed1"/>

  <rect x="60" y="780" width="960" height="180" rx="24" fill="#fff" stroke="#e3d8c8"/>
  <text x="90" y="835" class="h2">&#x8B1B;&#x7FA9;1: &#x30E1;&#x30E2;&#x3067;&#x4FA1;&#x5024;&#x3092;&#x8A00;&#x8A9E;&#x5316;</text>
  <text x="90" y="875" class="text">&#x8A66;&#x8074;&#x6642;&#x9593; 6&#x5206; / +15pt</text>
  <rect x="90" y="900" width="180" height="42" rx="21" fill="#eaf5ec"/>
  <text x="120" y="928" style="font:700 18px 'Noto Sans JP',sans-serif;fill:#2b8a57">&#x5B8C;&#x4E86;</text>

  <rect x="60" y="985" width="960" height="180" rx="24" fill="#fff" stroke="#e3d8c8"/>
  <text x="90" y="1040" class="h2">&#x8B1B;&#x7FA9;2: &#x81EA;&#x5DF1;&#x7D39;&#x4ECB;&#x3092;&#x5546;&#x54C1;&#x5316;</text>
  <text x="90" y="1080" class="text">&#x8A66;&#x8074;&#x6642;&#x9593; 7&#x5206; / +20pt</text>
  <rect x="90" y="1105" width="210" height="42" rx="21" fill="#eef2f8"/>
  <text x="120" y="1133" style="font:700 18px 'Noto Sans JP',sans-serif;fill:#55708f">&#x672A;&#x5B8C;&#x4E86;</text>

  <rect x="60" y="1190" width="960" height="220" rx="24" fill="#f3f6ff" stroke="#b5c6eb"/>
  <text x="90" y="1245" class="h2">&#x7279;&#x5225;&#x8B1B;&#x7FA9;: &#x30C1;&#x30FC;&#x30E0;&#x6210;&#x679C;&#x306E;&#x53EF;&#x8996;&#x5316;</text>
  <text x="90" y="1285" class="text">&#x89E3;&#x653E;&#x6761;&#x4EF6;: &#x9650;&#x5B9A;&#x30C6;&#x30F3;&#x30D7;&#x30EC;&#x4EA4;&#x63DB;&#x6E08;&#x307F;</text>
  <rect x="90" y="1310" width="320" height="42" rx="21" fill="#dbe6ff"/>
  <text x="120" y="1338" style="font:700 18px 'Noto Sans JP',sans-serif;fill:#3a5ea8">&#x89E3;&#x653E;&#x30DC;&#x30FC;&#x30CA;&#x30B9; +35pt</text>
  <rect x="760" y="1288" width="220" height="60" rx="30" fill="#5f84d7"/>
  <text x="870" y="1326" class="btn">&#x518D;&#x751F;</text>

  <rect x="0" y="1760" width="1080" height="160" fill="#fffdf9" stroke="#e4daca"/>
  <text x="135" y="1842" class="tab">&#x30DB;&#x30FC;&#x30E0;</text>
  <text x="405" y="1842" class="tab">&#x30DE;&#x30C3;&#x30C1;</text>
  <text x="675" y="1842" class="tab">&#x5831;&#x916C;</text>
  <text x="945" y="1842" style="font:700 18px 'Noto Sans JP',sans-serif; fill:#1f2a44; text-anchor:middle">&#x8B1B;&#x7FA9;</text>
</svg>
